<svg xmlns="http://www.w3.org/2000/svg" xmlns:xlink="http://www.w3.org/1999/xlink" class="hidden"><symbol id="icon-check"><path d="M6.46 13.42a.48.48 0 01-.7 0L.8 8.47a.5.5 0 010-.71l1.4-1.41a.51.51 0 01.71 0L5.76 9.2a.48.48 0 00.7 0l6.63-6.62a.5.5 0 01.71 0L15.2 4a.5.5 0 010 .71z"/></symbol><symbol id="icon-chevron-down"><path d="M.91 4.05a1.39 1.39 0 012 0L8 8.9l5.06-4.85a1.38 1.38 0 012 0 1.54 1.54 0 010 2.09C14.57 6.68 9 12 9 12a1.4 1.4 0 01-2 0S1.44 6.68.91 6.14a1.54 1.54 0 010-2.09z"/></symbol><symbol id="icon-chevron-left"><path d="M12 .91a1.39 1.39 0 010 2L7.1 8l4.9 5.06a1.38 1.38 0 010 2 1.54 1.54 0 01-2.09 0C9.32 14.57 4 9 4 9a1.4 1.4 0 010-2S9.32 1.44 9.86.91a1.54 1.54 0 012.14 0z"/></symbol><symbol id="icon-chevron-right"><path d="M4.05 15.09a1.39 1.39 0 010-2L8.9 8 4.05 2.94a1.38 1.38 0 010-2 1.54 1.54 0 012.09 0C6.68 1.43 12 7 12 7a1.4 1.4 0 010 2s-5.28 5.54-5.82 6.07a1.54 1.54 0 01-2.13.02z"/></symbol><symbol id="icon-chevron-up"><path d="M15.09 12a1.39 1.39 0 01-2 0L8 7.1 2.94 12a1.38 1.38 0 01-2 0 1.54 1.54 0 010-2.09C1.43 9.32 7 4 7 4a1.4 1.4 0 012 0s5.54 5.28 6.07 5.82a1.54 1.54 0 01.02 2.18z"/></symbol><symbol id="icon-circle"><circle cx="8" cy="8" r="6"/></symbol><symbol id="icon-close"><path d="M13.55 14.19a1.53 1.53 0 01-2.17 0L8 10.32l-3.38 3.87A1.53 1.53 0 112.45 12L6 8 2.45 4a1.53 1.53 0 012.17-2.19L8 5.68l3.38-3.87A1.53 1.53 0 0113.55 4L10 8l3.52 4a1.53 1.53 0 01.03 2.19z"/></symbol><symbol id="icon-drupal"><path d="M11.25 3.33c-.81-.49-1.46-.65-2.19-1.14A9.85 9.85 0 017.43.57a2.39 2.39 0 01-.73 1.7 8.69 8.69 0 01-1.79 1.06A6.32 6.32 0 001.5 9a6.46 6.46 0 006.58 6.41A6.2 6.2 0 0014.5 9.1a6.79 6.79 0 00-3.25-5.77zm0 10.89a2.51 2.51 0 01-1.46.56 3.69 3.69 0 01-2.44-.48c-.08-.17-.08-.25 0-.33a.29.29 0 01.24-.08h.08c.25.24.66.41 1.63.41a3.09 3.09 0 001.87-.49c.16-.08.16 0 .16.16a.32.32 0 01-.08.25zm-2.44-1.47c.17-.08.41-.32.65-.48a1.29 1.29 0 01.57-.09 1.55 1.55 0 01.65.17c.16.08.24.32.33.48a.24.24 0 01-.09.33c-.16.08-.16 0-.24-.16s-.16-.41-.65-.41a1.27 1.27 0 00-.89.41c-.25.16-.33.24-.41.16s-.08-.24.08-.41zm3.82.17c-.49-.09-1.54-1.71-2.19-1.71-.82-.08-2.68 1.71-4.06 1.71A2.45 2.45 0 015 12.59a1.45 1.45 0 01-.65-1.38A2.33 2.33 0 016.7 9c1.63 0 2.84 1.62 3.66 1.62s2.11-1.38 2.76-1.38 1 .73 1 1.22a3.76 3.76 0 01-.48 1.79c-.36.5-.64.67-1.01.67z"/></symbol><symbol id="icon-error"><path d="M8 1a7 7 0 107 7 7 7 0 00-7-7zm4 9.28a.37.37 0 01.1.24.35.35 0 01-.1.24L10.76 12a.31.31 0 01-.24.1.33.33 0 01-.24-.1L8 9.74 5.72 12a.33.33 0 01-.24.1.31.31 0 01-.24-.1L4 10.76a.31.31 0 01-.1-.24.33.33 0 01.1-.24L6.26 8 4 5.72a.33.33 0 01-.1-.24.31.31 0 01.1-.24L5.24 4a.35.35 0 01.24-.1.37.37 0 01.24.1L8 6.26 10.28 4a.37.37 0 01.24-.1.35.35 0 01.24.1L12 5.24a.35.35 0 01.1.24.37.37 0 01-.1.24L9.74 8z"/></symbol><symbol id="icon-facebook"><path d="M4 8.71V5.88h2.3V4a3.29 3.29 0 011-2.55A3.57 3.57 0 019.84.5 16.16 16.16 0 0112 .61v2.44h-1.51a1.43 1.43 0 00-1.08.32 1.39 1.39 0 00-.28 1v1.51h2.8l-.37 2.83H9.13v6.79H6.3V8.71z"/></symbol><symbol id="icon-google-plus"><path d="M.75 12.69a2.47 2.47 0 01.41-1.36 3.33 3.33 0 011.07-1 8.16 8.16 0 013.66-.91 3.68 3.68 0 01-.43-.67 1.53 1.53 0 01-.14-.66 2 2 0 01.19-.77 6 6 0 01-.62 0 3.15 3.15 0 01-2.26-.88 2.93 2.93 0 01-.92-2.21A3.3 3.3 0 012 2.79a3.54 3.54 0 01.9-1.19A4.37 4.37 0 014.59.72a3.87 3.87 0 012-.15h3.79l-1.28.58H7.91a5.27 5.27 0 011 1.28 3 3 0 01.35 1.45 2.94 2.94 0 01-.22 1.17 2.65 2.65 0 01-.54.84 8.51 8.51 0 01-.63.59 4 4 0 00-.53.52 1 1 0 00-.22.6 1 1 0 00.29.64 5.46 5.46 0 00.7.61 8.3 8.3 0 01.82.67 3 3 0 011 2.23 3.06 3.06 0 01-.43 1.56A3.91 3.91 0 017.57 15a7 7 0 01-2.7.52 6.53 6.53 0 01-2.23-.38 2.84 2.84 0 01-1.55-1.24 2.17 2.17 0 01-.34-1.19zm1.74-.41a2 2 0 00.32 1.11 2.16 2.16 0 00.83.76 5 5 0 001.08.4 5.48 5.48 0 001.15.13 4.17 4.17 0 001-.12 3.91 3.91 0 00.9-.35 1.87 1.87 0 00.91-1.65 1.74 1.74 0 00-.06-.45c-.05-.14-.09-.27-.14-.38a1.27 1.27 0 00-.24-.37L8 11a3.4 3.4 0 00-.35-.31l-.33-.27-.37-.27L6.6 10h-.44a7.46 7.46 0 00-1 .06 5.23 5.23 0 00-1 .23 3.42 3.42 0 00-.88.42 2 2 0 00-.62.67 1.81 1.81 0 00-.25 1zm1.16-9a4.61 4.61 0 00.09.88 5.05 5.05 0 00.26.93 3.51 3.51 0 00.47.83 2.21 2.21 0 00.68.61 1.68 1.68 0 00.87.24 1.85 1.85 0 00.71-.15 1.71 1.71 0 00.6-.4 2 2 0 00.48-1.44 4.27 4.27 0 00-.16-1.13 5.32 5.32 0 00-.44-1.17 2.7 2.7 0 00-.76-.94 1.69 1.69 0 00-1.06-.37 1.79 1.79 0 00-.75.17 1.64 1.64 0 00-.59.48 2.24 2.24 0 00-.43 1.45zm7 4.84V6.37h1.74V4.63h1.16v1.74h1.74v1.74h-1.78v1.74h-1.16V8.11z"/></symbol><symbol id="icon-instagram"><path d="M12 1.5H4A2.52 2.52 0 001.5 4v8A2.52 2.52 0 004 14.5h8a2.52 2.52 0 002.5-2.5V4A2.52 2.52 0 0012 1.5zm.71 1.5H13v2.2h-2.2V3zM6.15 6.67a2.26 2.26 0 013.7 0A2.19 2.19 0 0110.29 8a2.29 2.29 0 11-4.58 0 2.19 2.19 0 01.44-1.33zM13.23 12A1.25 1.25 0 0112 13.23H4A1.25 1.25 0 012.77 12V6.67h1.94A3.47 3.47 0 004.45 8a3.55 3.55 0 107.1 0 3.47 3.47 0 00-.26-1.33h1.94z"/></symbol><symbol id="icon-linkedin"><path d="M.5 2.34A1.59 1.59 0 011 1.13 1.83 1.83 0 012.33.65a1.81 1.81 0 011.31.48 1.65 1.65 0 01.5 1.21 1.53 1.53 0 01-.5 1.19A1.82 1.82 0 012.31 4 1.75 1.75 0 011 3.53a1.59 1.59 0 01-.5-1.19zm.52 13V5.91h3.15v9.44zm4.7 0V8.83 5.92h2.86v1.24A3.87 3.87 0 019 6.62a4 4 0 01.58-.5 2.63 2.63 0 01.89-.42 4.25 4.25 0 011.17-.15 3.74 3.74 0 012.81 1.1 4.43 4.43 0 011.05 3.21v5.49h-3.15V10A2.67 2.67 0 0012 8.37a1.39 1.39 0 00-1.24-.58 1.57 1.57 0 00-1 .34c-.28.22-1.11.92-1.11 1.63v5.59z"/></symbol><symbol id="icon-minus"><path d="M15.5 7.32v1.36a1 1 0 01-.3.73 1 1 0 01-.72.29h-13a1 1 0 01-.68-.29 1 1 0 01-.3-.73V7.32a1 1 0 01.3-.73 1 1 0 01.72-.29h13a1 1 0 01.72.29 1 1 0 01.26.73z"/></symbol><symbol id="icon-nav"><path d="M.5 13.62v-1.25a.57.57 0 01.19-.43.57.57 0 01.43-.19h13.76a.65.65 0 01.62.62v1.25a.58.58 0 01-.19.44.57.57 0 01-.43.19H1.12a.57.57 0 01-.43-.19.58.58 0 01-.19-.44zm0-5V7.38a.58.58 0 01.19-.44.57.57 0 01.43-.19h13.76a.57.57 0 01.43.19.58.58 0 01.19.44v1.24a.58.58 0 01-.19.44.57.57 0 01-.43.19H1.12a.57.57 0 01-.43-.19.58.58 0 01-.19-.44zm0-5V2.38a.58.58 0 01.19-.44.57.57 0 01.43-.19h13.76a.57.57 0 01.43.19.58.58 0 01.19.44v1.25a.57.57 0 01-.19.43.57.57 0 01-.43.19H1.12a.57.57 0 01-.43-.19.57.57 0 01-.19-.43z"/></symbol><symbol id="icon-pinterest-circle"><path d="M.5 8a7.31 7.31 0 011-3.76 7.45 7.45 0 012.74-2.73A7.21 7.21 0 018 .5a7.31 7.31 0 013.76 1 7.45 7.45 0 012.73 2.73A7.31 7.31 0 0115.5 8a7.31 7.31 0 01-1 3.76 7.45 7.45 0 01-2.73 2.73 7.49 7.49 0 01-5.89.7 5.79 5.79 0 00.76-1.6c.06-.23.24-.91.53-2.06a1.62 1.62 0 00.71.65 2.3 2.3 0 001.12.28 3.51 3.51 0 002.11-.67A4.37 4.37 0 0012.53 10 6.53 6.53 0 0013 7.32a4 4 0 00-.58-2.09 4.35 4.35 0 00-1.69-1.6A5 5 0 008.28 3a6.21 6.21 0 00-1.91.28 5.08 5.08 0 00-1.51.75 5.41 5.41 0 00-1.06 1.1 4.41 4.41 0 00-.66 1.27 4.22 4.22 0 00-.21 1.31 3.89 3.89 0 00.39 1.78 2.2 2.2 0 001.14 1.09c.2.08.32 0 .38-.2 0 0 0-.14.07-.3S5 9.83 5 9.79a.42.42 0 00-.11-.42 2.24 2.24 0 01-.49-1.48A3.56 3.56 0 018.08 4.3a3.14 3.14 0 012.3.8 2.76 2.76 0 01.82 2.08 5.5 5.5 0 01-.67 2.82 1.94 1.94 0 01-1.71 1.16 1.2 1.2 0 01-1-.42 1.12 1.12 0 01-.22-1c.05-.23.14-.53.26-.92s.22-.71.29-1a2.81 2.81 0 00.11-.74A1.23 1.23 0 008 6.25a.94.94 0 00-.75-.32 1.24 1.24 0 00-1 .55 2.27 2.27 0 00-.42 1.39 2.5 2.5 0 00.25 1.19l-1 4.09A6.68 6.68 0 005 14.87a7.45 7.45 0 01-3.25-2.74A7.24 7.24 0 01.5 8z"/></symbol><symbol id="icon-pinterest"><path d="M7 10.42c-.39 2.07-.87 4.05-2.3 5.08-.44-3.12.65-5.47 1.15-7.95C5 6.1 5.92 3.19 7.73 3.91c2.23.88-1.93 5.37.86 5.94S12.7 4.78 10.89 3C8.28.29 3.28 2.89 3.9 6.68c.15.93 1.1 1.21.38 2.5-1.67-.38-2.17-1.7-2.11-3.45A5.63 5.63 0 017.25.55c3.15-.35 6.11 1.16 6.52 4.12.46 3.35-1.43 7-4.8 6.71A4.06 4.06 0 017 10.42z"/></symbol><symbol id="icon-play"><g data-name="Capa 1"><path d="M14.07 4.5A7 7 0 102 11.5a7 7 0 0012.12-7zm-3.25 8.31a5.53 5.53 0 01-7.62-2.06 5.53 5.53 0 012.06-7.62 5.53 5.53 0 017.62 2.06 5.59 5.59 0 01-2.06 7.62zm-.31-5.12L6.82 5.56c-.31-.18-.63-.06-.63.38v4.25c0 .37.25.56.63.37l3.62-2.12c.44-.19.44-.5.07-.75z" data-name="356. Play"/></g></symbol><symbol id="icon-plus"><path d="M14.72 6.69a.89.89 0 00-.67-.28H9.59V2a.89.89 0 00-.28-.67.89.89 0 00-.67-.33H7.36a.89.89 0 00-.67.28.89.89 0 00-.28.72v4.41H2a.89.89 0 00-.67.28.89.89 0 00-.33.67v1.28a.89.89 0 00.28.67.89.89 0 00.72.28h4.41v4.46a1 1 0 001 .95h1.23a1 1 0 00.95-.95V9.59h4.46a1 1 0 00.95-.95V7.36a.89.89 0 00-.28-.67z"/></symbol><symbol id="icon-rss"><path d="M1.5 1.5v2a11 11 0 0111 11h2a13 13 0 00-13-13zm0 4.05v2a6.92 6.92 0 016.92 6.95h2A9 9 0 001.5 5.55zm1.94 5.07a1.94 1.94 0 101.94 1.94 1.94 1.94 0 00-1.94-1.94z"/></symbol><symbol id="icon-search"><path d="M15.09 15.09a1.41 1.41 0 01-2 0l-2.48-2.49a6.49 6.49 0 01-3.54 1.05 6.58 6.58 0 116.58-6.58 6.49 6.49 0 01-1.05 3.54l2.49 2.49a1.41 1.41 0 010 1.99zm-8-12.71a4.7 4.7 0 104.7 4.69 4.69 4.69 0 00-4.72-4.69z"/></symbol><symbol id="icon-twitter"><path d="M14 4.94v.4a8.68 8.68 0 01-8.75 8.75A8.65 8.65 0 01.5 12.71a6 6 0 00.73 0 6.22 6.22 0 003.83-1.31 3.1 3.1 0 01-2.88-2.1 2.78 2.78 0 00.58 0 3.1 3.1 0 00.81-.1 3.09 3.09 0 01-2.47-3 3.15 3.15 0 001.4.39 3.1 3.1 0 01-1-4.11 8.76 8.76 0 006.39 3.2A3.19 3.19 0 017.81 5a3.08 3.08 0 015.32-2.1 6.37 6.37 0 002-.75 3.07 3.07 0 01-1.36 1.7 6.09 6.09 0 001.77-.48A6 6 0 0114 4.94z"/></symbol><symbol id="icon-warning"><path d="M14.71 12.56L9.35 1.85c-.74-1.49-2-1.49-2.7 0L1.29 12.56A1.72 1.72 0 003 15.27h10a1.72 1.72 0 001.71-2.71zM7 4.18h2v5H7zm2.27 8.69a.63.63 0 01-.63.63H7.37a.63.63 0 01-.63-.63v-1.25a.63.63 0 01.63-.62h1.26a.63.63 0 01.63.63z"/></symbol><symbol id="icon-youtube"><path d="M11.07 2.93v2.86a1.21 1.21 0 01-.24.21.46.46 0 01-.21.08.2.2 0 01-.16-.08.37.37 0 01-.05-.2V2.93h-.77v3.15a.82.82 0 00.14.51.48.48 0 00.4.16 1.1 1.1 0 00.45-.11 1.59 1.59 0 00.44-.36v.42h.77V2.93zm-2.35.18a1.17 1.17 0 00-.79-.28 1.3 1.3 0 00-.84.27.87.87 0 00-.31.7v2a1 1 0 00.3.76 1.16 1.16 0 00.81.29 1.16 1.16 0 00.83-.28A1 1 0 009 5.76V3.82a1 1 0 00-.28-.71zm-.49 2.71a.32.32 0 01-.09.24.33.33 0 01-.25.09.3.3 0 01-.23-.09.36.36 0 01-.08-.24V3.77a.23.23 0 01.09-.2.31.31 0 01.22-.08.39.39 0 01.25.08.23.23 0 01.09.2zM5.84 1.59l-.53 2.05h-.06l-.56-2h-.88l1 3.09v2h.87V4.58l1-3zm6 9a.56.56 0 01.06.3v.35h-.59v-.35a.48.48 0 01.06-.3.3.3 0 01.24-.1.29.29 0 01.25.1zm-2.38 0a.25.25 0 00-.21-.09.32.32 0 00-.14 0 .48.48 0 00-.15.11v2.13a.77.77 0 00.17.12.42.42 0 00.16 0 .2.2 0 00.19-.08.4.4 0 00.06-.23v-1.72a.38.38 0 00-.06-.26zm0 0a.25.25 0 00-.21-.09.32.32 0 00-.14 0 .48.48 0 00-.15.11v2.13a.77.77 0 00.17.12.42.42 0 00.16 0 .2.2 0 00.19-.08.4.4 0 00.06-.23v-1.72a.38.38 0 00-.06-.26zm3.88-2.64H2.64A2.16 2.16 0 00.5 10.08v2.19a2.16 2.16 0 002.14 2.14h10.72a2.16 2.16 0 002.14-2.14v-2.19a2.16 2.16 0 00-2.14-2.15zM5.53 9.44h-.8v4H4v-4h-.84v-.68h2.37zm2.25 4h-.69V13a1.28 1.28 0 01-.39.32.89.89 0 01-.39.11.44.44 0 01-.37-.16.78.78 0 01-.11-.45V10h.68v2.64a.29.29 0 000 .17s.07.05.13.05a.34.34 0 00.19-.07.76.76 0 00.21-.19V10h.69zm2.48-.71a.85.85 0 01-.16.56.56.56 0 01-.47.19.78.78 0 01-.35-.07 1 1 0 01-.3-.24v.27h-.69V8.76H9v1.49a.93.93 0 01.3-.23.71.71 0 01.31-.08.61.61 0 01.5.21 1.06 1.06 0 01.17.64zm2.37-.92h-1.3v.65a.68.68 0 00.06.37.25.25 0 00.23.1.3.3 0 00.24-.09.76.76 0 00.06-.38v-.16h.71v.17a1.07 1.07 0 01-.26.79 1 1 0 01-.76.27.94.94 0 01-.73-.28 1.13 1.13 0 01-.26-.78V10.9a1 1 0 01.29-.73 1.05 1.05 0 01.75-.28 1 1 0 01.72.26 1.08 1.08 0 01.25.75zm-3.36-1.33a.32.32 0 00-.14 0 .48.48 0 00-.15.11v2.13a.77.77 0 00.17.12.42.42 0 00.16 0 .2.2 0 00.19-.08.4.4 0 00.06-.23v-1.7a.38.38 0 00-.08-.26.25.25 0 00-.21-.09zm.21.09a.25.25 0 00-.21-.09.32.32 0 00-.14 0 .48.48 0 00-.15.11v2.13a.77.77 0 00.17.12.42.42 0 00.16 0 .2.2 0 00.19-.08.4.4 0 00.06-.23v-1.7a.38.38 0 00-.08-.26zm0 0a.25.25 0 00-.21-.09.32.32 0 00-.14 0 .48.48 0 00-.15.11v2.13a.77.77 0 00.17.12.42.42 0 00.16 0 .2.2 0 00.19-.08.4.4 0 00.06-.23v-1.7a.38.38 0 00-.08-.26z"/></symbol></svg>