<svg id="Layer_1" data-name="Layer 1" xmlns="http://www.w3.org/2000/svg" width="16" height="16" viewBox="0 0 16 16"><title>icons</title><path d="M11.07,2.93V5.79a1.21,1.21,0,0,1-.24.21.46.46,0,0,1-.21.08A.2.2,0,0,1,10.46,6a.37.37,0,0,1-.05-.2V2.93H9.64V6.08a.82.82,0,0,0,.14.51.48.48,0,0,0,.4.16,1.1,1.1,0,0,0,.45-.11,1.59,1.59,0,0,0,.44-.36V6.7h.77V2.93Zm-2.35.18a1.17,1.17,0,0,0-.79-.28,1.3,1.3,0,0,0-.84.27.87.87,0,0,0-.31.7v2a1,1,0,0,0,.3.76,1.16,1.16,0,0,0,.81.29,1.16,1.16,0,0,0,.83-.28A1,1,0,0,0,9,5.76V3.82A1,1,0,0,0,8.72,3.11ZM8.23,5.82a.32.32,0,0,1-.09.24.33.33,0,0,1-.25.09.3.3,0,0,1-.23-.09.36.36,0,0,1-.08-.24V3.77a.23.23,0,0,1,.09-.2.31.31,0,0,1,.22-.08.39.39,0,0,1,.25.08.23.23,0,0,1,.09.2ZM5.84,1.59,5.31,3.64H5.25l-.56-2H3.81l1,3.09v2h.87V4.58l1-3Zm6,9a.56.56,0,0,1,.06.3v.35h-.59v-.35a.48.48,0,0,1,.06-.3.3.3,0,0,1,.24-.1A.29.29,0,0,1,11.86,10.59Zm-2.38,0a.25.25,0,0,0-.21-.09.32.32,0,0,0-.14,0,.48.48,0,0,0-.15.11v2.13a.77.77,0,0,0,.17.12.42.42,0,0,0,.16,0,.2.2,0,0,0,.19-.08.4.4,0,0,0,.06-.23V10.83A.38.38,0,0,0,9.48,10.57Zm0,0a.25.25,0,0,0-.21-.09.32.32,0,0,0-.14,0,.48.48,0,0,0-.15.11v2.13a.77.77,0,0,0,.17.12.42.42,0,0,0,.16,0,.2.2,0,0,0,.19-.08.4.4,0,0,0,.06-.23V10.83A.38.38,0,0,0,9.48,10.57Zm3.88-2.64H2.64A2.16,2.16,0,0,0,.5,10.08v2.19a2.16,2.16,0,0,0,2.14,2.14H13.36a2.16,2.16,0,0,0,2.14-2.14V10.08A2.16,2.16,0,0,0,13.36,7.93ZM5.53,9.44h-.8v4H4v-4H3.16V8.76H5.53Zm2.25,4H7.09V13a1.28,1.28,0,0,1-.39.32.89.89,0,0,1-.39.11.44.44,0,0,1-.37-.16.78.78,0,0,1-.11-.45V10h.68v2.64a.29.29,0,0,0,0,.17s.07.05.13.05a.34.34,0,0,0,.19-.07.76.76,0,0,0,.21-.19V10h.69Zm2.48-.71a.85.85,0,0,1-.16.56.56.56,0,0,1-.47.19.78.78,0,0,1-.35-.07,1,1,0,0,1-.3-.24v.27H8.29V8.76H9v1.49a.93.93,0,0,1,.3-.23.71.71,0,0,1,.31-.08.61.61,0,0,1,.5.21,1.06,1.06,0,0,1,.17.64Zm2.37-.92h-1.3v.65a.68.68,0,0,0,.06.37.25.25,0,0,0,.23.1.3.3,0,0,0,.24-.09.76.76,0,0,0,.06-.38v-.16h.71v.17a1.07,1.07,0,0,1-.26.79,1,1,0,0,1-.76.27.94.94,0,0,1-.73-.28,1.13,1.13,0,0,1-.26-.78V10.9a1,1,0,0,1,.29-.73,1.05,1.05,0,0,1,.75-.28,1,1,0,0,1,.72.26,1.08,1.08,0,0,1,.25.75ZM9.27,10.48a.32.32,0,0,0-.14,0,.48.48,0,0,0-.15.11v2.13a.77.77,0,0,0,.17.12.42.42,0,0,0,.16,0,.2.2,0,0,0,.19-.08.4.4,0,0,0,.06-.23V10.83a.38.38,0,0,0-.08-.26A.25.25,0,0,0,9.27,10.48Zm.21.09a.25.25,0,0,0-.21-.09.32.32,0,0,0-.14,0,.48.48,0,0,0-.15.11v2.13a.77.77,0,0,0,.17.12.42.42,0,0,0,.16,0,.2.2,0,0,0,.19-.08.4.4,0,0,0,.06-.23V10.83A.38.38,0,0,0,9.48,10.57Zm0,0a.25.25,0,0,0-.21-.09.32.32,0,0,0-.14,0,.48.48,0,0,0-.15.11v2.13a.77.77,0,0,0,.17.12.42.42,0,0,0,.16,0,.2.2,0,0,0,.19-.08.4.4,0,0,0,.06-.23V10.83A.38.38,0,0,0,9.48,10.57Z"/></svg>