<svg id="Layer_1" data-name="Layer 1" xmlns="http://www.w3.org/2000/svg" width="16" height="16" viewBox="0 0 16 16"><title>icons</title><path d="M.5,2.34A1.59,1.59,0,0,1,1,1.13,1.83,1.83,0,0,1,2.33.65a1.81,1.81,0,0,1,1.31.48,1.65,1.65,0,0,1,.5,1.21,1.53,1.53,0,0,1-.5,1.19A1.82,1.82,0,0,1,2.31,4h0A1.75,1.75,0,0,1,1,3.53,1.59,1.59,0,0,1,.5,2.34Zm.52,13V5.91H4.17v9.44Zm4.7,0c0-2.76,0-4.88,0-6.51s0-2.6,0-2.91v0H8.58V7.16h0A3.87,3.87,0,0,1,9,6.62a4,4,0,0,1,.58-.5,2.63,2.63,0,0,1,.89-.42,4.25,4.25,0,0,1,1.17-.15,3.74,3.74,0,0,1,2.81,1.1A4.43,4.43,0,0,1,15.5,9.86v5.49H12.35V10A2.67,2.67,0,0,0,12,8.37a1.39,1.39,0,0,0-1.24-.58,1.57,1.57,0,0,0-1,.34c-.28.22-1.11.92-1.11,1.63v5.59Z"/></svg>