<svg id="Layer_1" data-name="Layer 1" xmlns="http://www.w3.org/2000/svg" width="16" height="16" viewBox="0 0 16 16"><title>icons</title><path d="M14,4.94c0,.13,0,.27,0,.4a8.68,8.68,0,0,1-8.75,8.75A8.65,8.65,0,0,1,.5,12.71a6,6,0,0,0,.73,0,6.22,6.22,0,0,0,3.83-1.31A3.1,3.1,0,0,1,2.18,9.3a2.78,2.78,0,0,0,.58,0,3.1,3.1,0,0,0,.81-.1,3.09,3.09,0,0,1-2.47-3v0a3.15,3.15,0,0,0,1.4.39,3.1,3.1,0,0,1-1-4.11A8.76,8.76,0,0,0,7.89,5.68,3.19,3.19,0,0,1,7.81,5a3.08,3.08,0,0,1,5.32-2.1,6.37,6.37,0,0,0,2-.75,3.07,3.07,0,0,1-1.36,1.7,6.09,6.09,0,0,0,1.77-.48A6,6,0,0,1,14,4.94Z"/></svg>