<svg id="Layer_1" data-name="Layer 1" xmlns="http://www.w3.org/2000/svg" width="16" height="16" viewBox="0 0 16 16"><title>icons</title><path d="M.75,12.69a2.47,2.47,0,0,1,.41-1.36,3.33,3.33,0,0,1,1.07-1,8.16,8.16,0,0,1,3.66-.91,3.68,3.68,0,0,1-.43-.67,1.53,1.53,0,0,1-.14-.66,2,2,0,0,1,.19-.77,6,6,0,0,1-.62,0,3.15,3.15,0,0,1-2.26-.88,2.93,2.93,0,0,1-.92-2.21A3.3,3.3,0,0,1,2,2.79a3.54,3.54,0,0,1,.9-1.19A4.37,4.37,0,0,1,4.59.72a3.87,3.87,0,0,1,2-.15h3.79L9.1,1.15H7.91a5.27,5.27,0,0,1,1,1.28,3,3,0,0,1,.35,1.45,2.94,2.94,0,0,1-.22,1.17,2.65,2.65,0,0,1-.54.84,8.51,8.51,0,0,1-.63.59A4,4,0,0,0,7.34,7a1,1,0,0,0-.22.6,1,1,0,0,0,.29.64,5.46,5.46,0,0,0,.7.61,8.3,8.3,0,0,1,.82.67,3,3,0,0,1,1,2.23,3.06,3.06,0,0,1-.43,1.56A3.91,3.91,0,0,1,7.57,15a7,7,0,0,1-2.7.52,6.53,6.53,0,0,1-2.23-.38,2.84,2.84,0,0,1-1.55-1.24,2.17,2.17,0,0,1-.34-1.19Zm1.74-.41a2,2,0,0,0,.32,1.11,2.16,2.16,0,0,0,.83.76,5,5,0,0,0,1.08.4,5.48,5.48,0,0,0,1.15.13,4.17,4.17,0,0,0,1-.12,3.91,3.91,0,0,0,.9-.35,1.87,1.87,0,0,0,.91-1.65,1.74,1.74,0,0,0-.06-.45c-.05-.14-.09-.27-.14-.38a1.27,1.27,0,0,0-.24-.37L8,11a3.4,3.4,0,0,0-.35-.31l-.33-.27-.37-.27L6.6,10l-.44,0a7.46,7.46,0,0,0-1,.06,5.23,5.23,0,0,0-1,.23,3.42,3.42,0,0,0-.88.42,2,2,0,0,0-.62.67,1.81,1.81,0,0,0-.25,1Zm1.16-9a4.61,4.61,0,0,0,.09.88A5.05,5.05,0,0,0,4,5.09a3.51,3.51,0,0,0,.47.83,2.21,2.21,0,0,0,.68.61,1.68,1.68,0,0,0,.87.24,1.85,1.85,0,0,0,.71-.15,1.71,1.71,0,0,0,.6-.4,2,2,0,0,0,.48-1.44,4.27,4.27,0,0,0-.16-1.13,5.32,5.32,0,0,0-.44-1.17,2.7,2.7,0,0,0-.76-.94,1.69,1.69,0,0,0-1.06-.37,1.79,1.79,0,0,0-.75.17,1.64,1.64,0,0,0-.59.48,2.24,2.24,0,0,0-.43,1.45Zm7,4.84V6.37h1.74V4.63h1.16V6.37h1.74V8.11H13.51V9.85H12.35V8.11Z"/></svg>