<svg id="Layer_1" data-name="Layer 1" xmlns="http://www.w3.org/2000/svg" width="16" height="16" viewBox="0 0 16 16"><title>icons</title><path d="M11.25,3.33c-.81-.49-1.46-.65-2.19-1.14A9.85,9.85,0,0,1,7.43.57a2.39,2.39,0,0,1-.73,1.7A8.69,8.69,0,0,1,4.91,3.33,6.32,6.32,0,0,0,1.5,9a6.46,6.46,0,0,0,6.58,6.41A6.2,6.2,0,0,0,14.5,9.1,6.79,6.79,0,0,0,11.25,3.33Zm0,10.89a2.51,2.51,0,0,1-1.46.56,3.69,3.69,0,0,1-2.44-.48c-.08-.17-.08-.25,0-.33a.29.29,0,0,1,.24-.08h.08c.25.24.66.41,1.63.41a3.09,3.09,0,0,0,1.87-.49c.16-.08.16,0,.16.16A.32.32,0,0,1,11.25,14.22ZM8.81,12.75c.17-.08.41-.32.65-.48a1.29,1.29,0,0,1,.57-.09,1.55,1.55,0,0,1,.65.17c.16.08.24.32.33.48a.24.24,0,0,1-.09.33c-.16.08-.16,0-.24-.16s-.16-.41-.65-.41a1.27,1.27,0,0,0-.89.41c-.25.16-.33.24-.41.16S8.65,12.92,8.81,12.75Zm3.82.17c-.49-.09-1.54-1.71-2.19-1.71-.82-.08-2.68,1.71-4.06,1.71A2.45,2.45,0,0,1,5,12.59a1.45,1.45,0,0,1-.65-1.38A2.33,2.33,0,0,1,6.7,9c1.63,0,2.84,1.62,3.66,1.62s2.11-1.38,2.76-1.38,1,.73,1,1.22a3.76,3.76,0,0,1-.48,1.79C13.28,12.75,13,12.92,12.63,12.92Z"/></svg>