<svg id="Layer_1" data-name="Layer 1" xmlns="http://www.w3.org/2000/svg" width="16" height="16" viewBox="0 0 16 16"><title>icons</title><g id="Capa_1" data-name="Capa 1"><g id="_356._Play" data-name="356. Play"><path d="M14.07,4.5A7,7,0,1,0,2,11.5a7,7,0,0,0,12.12-7Zm-3.25,8.31A5.53,5.53,0,0,1,3.2,10.75,5.53,5.53,0,0,1,5.26,3.13a5.53,5.53,0,0,1,7.62,2.06A5.59,5.59,0,0,1,10.82,12.81Zm-.31-5.12L6.82,5.56c-.31-.18-.63-.06-.63.38v4.25c0,.37.25.56.63.37l3.62-2.12C10.88,8.25,10.88,7.94,10.51,7.69Z"/></g></g></svg>