<svg id="Layer_1" data-name="Layer 1" xmlns="http://www.w3.org/2000/svg" width="16" height="16" viewBox="0 0 16 16"><title>icons</title><path d="M8,1a7,7,0,1,0,7,7A7,7,0,0,0,8,1Zm4,9.28a.37.37,0,0,1,.1.24.35.35,0,0,1-.1.24L10.76,12a.31.31,0,0,1-.24.1.33.33,0,0,1-.24-.1L8,9.74,5.72,12a.33.33,0,0,1-.24.1.31.31,0,0,1-.24-.1L4,10.76a.31.31,0,0,1-.1-.24.33.33,0,0,1,.1-.24L6.26,8,4,5.72a.33.33,0,0,1-.1-.24A.31.31,0,0,1,4,5.24L5.24,4a.35.35,0,0,1,.24-.1.37.37,0,0,1,.24.1L8,6.26,10.28,4a.37.37,0,0,1,.24-.1.35.35,0,0,1,.24.1L12,5.24a.35.35,0,0,1,.1.24.37.37,0,0,1-.1.24L9.74,8Z"/></svg>