<svg id="Layer_1" data-name="Layer 1" xmlns="http://www.w3.org/2000/svg" width="16" height="16" viewBox="0 0 16 16"><title>icons</title><path d="M12,1.5H4A2.52,2.52,0,0,0,1.5,4v8A2.52,2.52,0,0,0,4,14.5h8A2.52,2.52,0,0,0,14.5,12V4A2.52,2.52,0,0,0,12,1.5ZM12.71,3H13V5.2H10.8V3ZM6.15,6.67a2.26,2.26,0,0,1,3.7,0A2.19,2.19,0,0,1,10.29,8,2.29,2.29,0,1,1,5.71,8,2.19,2.19,0,0,1,6.15,6.67ZM13.23,12A1.25,1.25,0,0,1,12,13.23H4A1.25,1.25,0,0,1,2.77,12V6.67H4.71A3.47,3.47,0,0,0,4.45,8a3.55,3.55,0,1,0,7.1,0,3.47,3.47,0,0,0-.26-1.33h1.94Z"/></svg>