<svg id="Layer_1" data-name="Layer 1" xmlns="http://www.w3.org/2000/svg" width="16" height="16" viewBox="0 0 16 16"><title>icons</title><path d="M.5,8a7.31,7.31,0,0,1,1-3.76A7.45,7.45,0,0,1,4.24,1.51,7.21,7.21,0,0,1,8,.5a7.31,7.31,0,0,1,3.76,1,7.45,7.45,0,0,1,2.73,2.73A7.31,7.31,0,0,1,15.5,8a7.31,7.31,0,0,1-1,3.76,7.45,7.45,0,0,1-2.73,2.73,7.49,7.49,0,0,1-5.89.7,5.79,5.79,0,0,0,.76-1.6c.06-.23.24-.91.53-2.06a1.62,1.62,0,0,0,.71.65A2.3,2.3,0,0,0,9,12.46a3.51,3.51,0,0,0,2.11-.67A4.37,4.37,0,0,0,12.53,10,6.53,6.53,0,0,0,13,7.32a4,4,0,0,0-.58-2.09,4.35,4.35,0,0,0-1.69-1.6A5,5,0,0,0,8.28,3a6.21,6.21,0,0,0-1.91.28,5.08,5.08,0,0,0-1.51.75A5.41,5.41,0,0,0,3.8,5.13,4.41,4.41,0,0,0,3.14,6.4a4.22,4.22,0,0,0-.21,1.31,3.89,3.89,0,0,0,.39,1.78,2.2,2.2,0,0,0,1.14,1.09c.2.08.32,0,.38-.2,0,0,0-.14.07-.3S5,9.83,5,9.79a.42.42,0,0,0-.11-.42,2.24,2.24,0,0,1-.49-1.48A3.56,3.56,0,0,1,8.08,4.3a3.14,3.14,0,0,1,2.3.8,2.76,2.76,0,0,1,.82,2.08A5.5,5.5,0,0,1,10.53,10a1.94,1.94,0,0,1-1.71,1.16,1.2,1.2,0,0,1-1-.42,1.12,1.12,0,0,1-.22-1c.05-.23.14-.53.26-.92s.22-.71.29-1a2.81,2.81,0,0,0,.11-.74A1.23,1.23,0,0,0,8,6.25a.94.94,0,0,0-.75-.32,1.24,1.24,0,0,0-1,.55,2.27,2.27,0,0,0-.42,1.39,2.5,2.5,0,0,0,.25,1.19l-1,4.09A6.68,6.68,0,0,0,5,14.87a7.45,7.45,0,0,1-3.25-2.74A7.24,7.24,0,0,1,.5,8Z"/></svg>